<svg xmlns="http://www.w3.org/2000/svg" viewBox="0 0 1600 1000" role="img" aria-labelledby="title desc">
  <title id="title">Biela</title>
  <desc id="desc">Literárna kresba kalendára, tehotenského testu, bieleho nemocničného monitora a záznamu tlkotu.</desc>
  <rect width="1600" height="1000" fill="#fbfaf4"/>
  <rect x="0" y="736" width="1600" height="264" fill="#f3e6e7"/>
  <circle cx="1208" cy="248" r="150" fill="#d49a25"/>
  <circle cx="1208" cy="248" r="106" fill="none" stroke="#191715" stroke-width="4"/>
  <circle cx="1208" cy="248" r="62" fill="none" stroke="#191715" stroke-width="3"/>
  <rect x="156" y="176" width="402" height="456" rx="10" fill="#fffdf8" stroke="#191715" stroke-width="9"/>
  <path d="M156 270h402" stroke="#191715" stroke-width="7"/>
  <g fill="#fbfaf4" stroke="#191715" stroke-width="4">
    <rect x="210" y="328" width="48" height="42"/>
    <rect x="286" y="328" width="48" height="42"/>
    <rect x="362" y="328" width="48" height="42"/>
    <rect x="438" y="328" width="48" height="42"/>
    <rect x="210" y="404" width="48" height="42"/>
    <rect x="286" y="404" width="48" height="42"/>
    <rect x="362" y="404" width="48" height="42"/>
    <rect x="438" y="404" width="48" height="42"/>
    <rect x="210" y="480" width="48" height="42"/>
    <rect x="286" y="480" width="48" height="42"/>
    <rect x="362" y="480" width="48" height="42"/>
    <rect x="438" y="480" width="48" height="42"/>
  </g>
  <g stroke="#191715" stroke-width="5" stroke-linecap="round">
    <path d="M222 340l24 22M246 340l-24 22"/>
    <path d="M298 340l24 22M322 340l-24 22"/>
    <path d="M374 340l24 22M398 340l-24 22"/>
    <path d="M450 340l24 22M474 340l-24 22"/>
    <path d="M222 416l24 22M246 416l-24 22"/>
    <path d="M298 416l24 22M322 416l-24 22"/>
    <path d="M374 416l24 22M398 416l-24 22"/>
    <path d="M450 416l24 22M474 416l-24 22"/>
    <path d="M222 492l24 22M246 492l-24 22"/>
    <path d="M298 492l24 22M322 492l-24 22"/>
  </g>
  <rect x="288" y="190" width="136" height="56" fill="#d49a25" stroke="#191715" stroke-width="5"/>
  <path d="M212 592c92-24 188-24 288 0" stroke="#191715" stroke-width="6" stroke-linecap="round"/>
  <g transform="rotate(-9 776 606)">
    <rect x="594" y="542" width="364" height="92" rx="46" fill="#fffdf8" stroke="#191715" stroke-width="8"/>
    <rect x="632" y="572" width="110" height="34" rx="17" fill="#f3e6e7" stroke="#191715" stroke-width="5"/>
    <path d="M806 566v46M850 566v46" stroke="#d49a25" stroke-width="10" stroke-linecap="round"/>
    <path d="M908 588h20" stroke="#191715" stroke-width="6" stroke-linecap="round"/>
  </g>
  <path d="M514 826c74-38 148-38 222 0 74-38 148-38 222 0 74-38 148-38 222 0" fill="none" stroke="#191715" stroke-width="6" stroke-linecap="round"/>
  <rect x="938" y="430" width="422" height="252" rx="16" fill="#fffdf8" stroke="#191715" stroke-width="9"/>
  <rect x="984" y="478" width="330" height="128" fill="#191715"/>
  <path d="M1008 544h50l24-38 44 82 36-56 32 44h42l26-32h42" fill="none" stroke="#d49a25" stroke-width="9" stroke-linecap="round" stroke-linejoin="round"/>
  <path d="M1090 682v78M1228 682v78M1038 760h244" stroke="#191715" stroke-width="8" stroke-linecap="round"/>
  <path d="M1026 642c56 30 110 30 164 0M1218 642c34 18 68 18 102 0" fill="none" stroke="#191715" stroke-width="5" stroke-linecap="round"/>
  <g fill="#fffdf8" stroke="#191715" stroke-width="5">
    <path d="M704 266c-58 42-76 94-54 156 60-12 96-46 108-104 8-37-10-58-54-52z"/>
    <path d="M770 212c66 4 106 39 120 104-56 28-108 22-156-18-30-25-18-54 36-86z"/>
  </g>
  <path d="M748 340c54 48 84 110 90 186" fill="none" stroke="#191715" stroke-width="7" stroke-linecap="round"/>
  <path d="M724 396c42-12 76-2 102 30" fill="none" stroke="#d49a25" stroke-width="7" stroke-linecap="round"/>
</svg>
