<svg xmlns="http://www.w3.org/2000/svg" viewBox="0 0 1200 630" role="img" aria-labelledby="title desc">
  <title id="title">XYRA</title>
  <desc id="desc">Open Graph obrázok pre autorský web XYRA.</desc>
  <rect width="1200" height="630" fill="#fbfaf4"/>
  <circle cx="866" cy="180" r="118" fill="#d49a25" stroke="#191715" stroke-width="5"/>
  <circle cx="866" cy="180" r="76" fill="none" stroke="#191715" stroke-width="3"/>
  <text x="96" y="272" fill="#191715" font-family="Georgia, 'Times New Roman', serif" font-size="168" font-weight="700" letter-spacing="0">XYRA</text>
  <text x="106" y="348" fill="#3a352f" font-family="Arial, sans-serif" font-size="34">Poviedky slovenskej autorky</text>
  <g font-family="Arial, sans-serif" font-size="25" fill="#191715">
    <rect x="106" y="424" width="112" height="48" fill="#e8eef6" stroke="#ded5c6"/>
    <text x="132" y="457">Sci-fi</text>
    <rect x="238" y="424" width="148" height="48" fill="#fff3d3" stroke="#ded5c6"/>
    <text x="264" y="457">Reportáž</text>
    <rect x="406" y="424" width="132" height="48" fill="#e6efe5" stroke="#ded5c6"/>
    <text x="432" y="457">Fantasy</text>
  </g>
  <path d="M768 438c62-38 132-38 210 0 78-38 148-38 210 0v92c-62-38-132-38-210 0-78-38-148-38-210 0z" fill="#fffdf8" stroke="#191715" stroke-width="5" stroke-linejoin="round"/>
  <path d="M978 438v92" stroke="#191715" stroke-width="4"/>
</svg>
